# xmcd
#
# Track frame offsets:
#	150
#	15650
#	31421
#	46936
#	63004
#	81471
#	96284
#	111595
#	129941
#	146396
#	165853
#	183487
#	201352
#	215879
#	231828
#
# Disc length: 3300 seconds
#
# Revision: 0
# Processed by: cddbd v1.5.2PL0 Copyright (c) Steve Scherf et al.
# Submitted via: audiograbber 1.83.01
#
DISCID=d00ce20f
DTITLE=JonesTM - HC200821
DYEAR=2008
DGENRE=Country
TTITLE0=James Otto - For You
TTITLE1=Eddy Arnold - To Life [With Audio]
TTITLE2=Eddy Arnold - To Life [Single Version]
TTITLE3=Sugarland - All I Want To Do [Album Version]
TTITLE4=Eric Durrance - Angels Fly Away [Radio Edit]
TTITLE5=Kellie Pickler - Don't You Know You're Beautiful
TTITLE6=Road Hammers - Girl On The Billboard [Single Version]
TTITLE7=Kevin Michael - Ain't Got You
TTITLE8=Daniel Lowery - I'm An American [Single Version]
TTITLE9=Lalah Hathaway - Let Go [Album Version]
TTITLE10=Michael Haggins aka Squeak - Traffic [Radio Version]
TTITLE11=Syesha Mercado and Boney James - Gonna Get It
TTITLE12=Gerald Albright - Knock On Wood [Radio Edit]
TTITLE13=Roxanne Beck - Comes Love [Radio Edit]
TTITLE14=Carly Simon - Hold Out Your Heart
EXTD=
EXTT0=
EXTT1=
EXTT2=
EXTT3=
EXTT4=
EXTT5=
EXTT6=
EXTT7=
EXTT8=
EXTT9=
EXTT10=
EXTT11=
EXTT12=
EXTT13=
EXTT14=
PLAYORDER=
